<svg id="Group_73" data-name="Group 73" xmlns="http://www.w3.org/2000/svg" xmlns:xlink="http://www.w3.org/1999/xlink" width="41" height="42.666" viewBox="0 0 41 42.666">
  <defs>
    <clipPath id="clip-path">
      <rect id="Rectangle_28" data-name="Rectangle 28" width="41" height="42.666" fill="#fff"/>
    </clipPath>
  </defs>
  <g id="Group_67" data-name="Group 67" clip-path="url(#clip-path)">
    <path id="Path_18" data-name="Path 18" d="M21.381,42.666C12.54,41.609,5.35,37.809,1.634,29.03-3.494,16.916,3.977,2.8,16.692.363a20.556,20.556,0,0,1,23.962,16.8,21.36,21.36,0,0,1-1.7,12.942l-.391.857Zm-2.8-12.029a5.038,5.038,0,0,0-4.916-5.085,5.063,5.063,0,0,0-.037,10.124,5.025,5.025,0,0,0,4.953-5.039m8.737,5.04a5.067,5.067,0,1,0-4.906-5.1,5.065,5.065,0,0,0,4.906,5.1M4.454,17.2a5.085,5.085,0,0,0,4.894,5.134,5.076,5.076,0,0,0,.117-10.148A5.084,5.084,0,0,0,4.454,17.2M20.467,3.994a5.024,5.024,0,0,0,.092,10.047,4.982,4.982,0,0,0,4.9-5.075,4.948,4.948,0,0,0-4.991-4.972M36.522,17.217a5.006,5.006,0,0,0-4.858-5.029A5.057,5.057,0,0,0,26.7,17.03a4.957,4.957,0,0,0,4.873,5.295,4.906,4.906,0,0,0,4.952-5.107M20.61,19.054a1.91,1.91,0,0,0-1.94,1.771,1.88,1.88,0,0,0,1.875,2.028,1.947,1.947,0,0,0,1.819-1.912,1.975,1.975,0,0,0-1.754-1.888M16.6,18.336a1.32,1.32,0,0,0-1.283,1.29,1.256,1.256,0,0,0,1.338,1.3,1.277,1.277,0,0,0,1.192-1.263A1.346,1.346,0,0,0,16.6,18.336m3.985-.291a1.385,1.385,0,0,0,1.232-1.357,1.362,1.362,0,0,0-1.346-1.222,1.2,1.2,0,0,0-1.2,1.315,1.36,1.36,0,0,0,1.314,1.264M19.35,24.312a1.268,1.268,0,0,0-1.3-1.216,1.336,1.336,0,0,0-1.269,1.277,1.283,1.283,0,1,0,2.564-.061m5.164-3.351a1.3,1.3,0,0,0-.013-2.6,1.446,1.446,0,0,0-1.379,1.307,1.454,1.454,0,0,0,1.391,1.3m-.33,3.354a1.346,1.346,0,0,0-1.307-1.246,1.31,1.31,0,0,0,.116,2.616,1.334,1.334,0,0,0,1.191-1.37" transform="translate(0 0)" fill="#fff"/>
    <path id="Path_19" data-name="Path 19" d="M118.139,179.019c1.741,0,8.184-1.441,10.229-3.155,4.192-3.514,5.982-5.8,6.951-8.546" transform="translate(-96.758 -136.352)" fill="#fff"/>
  </g>
</svg>
