<?xml version="1.0" encoding="UTF-8"?>
<svg id="Layer_2" data-name="Layer 2" xmlns="http://www.w3.org/2000/svg" viewBox="0 0 101.75 17.78">
  <defs>
  </defs>
  <g id="Layer_1-2" data-name="Layer 1">
    <path class="cls-1" d="m12.94,14.55c-.39.18-.88.33-1.47.45s-1.2.18-1.84.18c-1.44,0-2.7-.29-3.78-.87s-1.93-1.41-2.56-2.5-.94-2.34-.94-3.78.27-2.63.8-3.62,1.28-1.74,2.24-2.26,2.05-.78,3.26-.78c.8,0,1.58.12,2.32.35s1.38.56,1.9.97c0,0,1.17,1.07,4.44.94.34-.01,1.13-.36,1.42-.62.01-.01.03-.03.04-.05.01-.01.03-.02.05-.03.13-.13.22-.28.28-.44,0-.01.02-.04.02-.04h-.01c.04-.12.07-.24.07-.38,0-.34-.12-.62-.36-.86s-.52-.36-.86-.36-.62.12-.86.36-.36.52-.36.86c0,.2.06.38.15.55-.79-.03-1.61-.27-2.19-.64l-.71-.44c-.62-.28-1.36-.63-2.3-.83s-1.88-.3-2.83-.3c-1.65,0-3.14.3-4.46.91s-2.39,1.52-3.2,2.74-1.21,2.65-1.21,4.29c0,2.37.81,4.3,2.43,5.77s3.72,2.21,6.31,2.21c1.81,0,3.51-.41,5.1-1.22l.41-1-.18-.23c-.36.26-.73.48-1.12.66Z"/>
    <path class="cls-1" d="m19.48,15.3c-.09-.02-.17-.06-.24-.12s-.11-.17-.15-.31-.06-.64-.09-1.5-.04-1.36-.04-1.52v-2.43c0-1.45.04-2.64.12-3.58l-.2-.14c-.94.37-2.09.64-3.47.81l-.09.09v.46l.1.09h.9c.28.01.47.04.56.09s.15.14.17.25.04.42.07.91.04.89.04,1.17v2.12c0,.4-.02,1-.05,1.78s-.06,1.25-.09,1.39-.07.24-.14.31-.15.11-.24.13-.48.05-1.18.1l-.1.09v.45l.1.1c.9-.06,1.76-.09,2.58-.09s1.7.03,2.59.09l.09-.1v-.45l-.1-.09c-.68-.04-1.07-.07-1.16-.09Z"/>
    <path class="cls-1" d="m32.47,15.2c-.14-.13-.21-.53-.23-1.22-.04-1.66-.05-2.56-.05-2.68v-1.89c0-.61-.05-1.12-.15-1.54s-.28-.78-.54-1.08-.65-.57-1.16-.79-1.04-.33-1.59-.33c-.32,0-.64.04-.95.11s-.53.14-.66.2-.27.17-.43.3c-.52.49-1.06.97-1.64,1.44.01-.78.04-1.41.09-1.89l-.2-.14c-.94.37-2.09.64-3.47.81l-.09.09v.46l.1.09h.9c.28.01.47.04.56.09s.15.14.17.25.04.42.07.91.04.89.04,1.17v2.12c0,.4-.02,1-.05,1.78s-.06,1.25-.09,1.39-.07.24-.14.31-.15.11-.24.13-.48.05-1.18.1l-.1.09v.45l.1.1c.9-.06,1.76-.09,2.58-.09s1.7.03,2.59.09l.09-.1v-.45l-.1-.09c-.68-.04-1.07-.07-1.16-.09s-.17-.06-.24-.12-.11-.17-.15-.31-.06-.64-.09-1.5-.04-1.36-.04-1.52v-1.87c0-.57.02-.95.05-1.12s.13-.37.29-.57.4-.42.73-.66.63-.39.89-.46.58-.11.96-.11c.47,0,.87.08,1.21.25s.61.41.81.71.32.64.36,1.02.06.98.06,1.83v1.41c0,1.5-.05,2.72-.14,3.65l.13.12c.86-.06,1.38-.09,1.57-.09.32,0,.94.03,1.85.09l.09-.09v-.46l-.09-.09c-.75,0-1.2-.06-1.33-.19Z"/>
    <path class="cls-1" d="m42.15,6.21c-.66-.41-1.42-.61-2.28-.61-.63,0-1.22.11-1.76.32s-1.06.5-1.55.86-.83.69-1.04.98-.4.74-.59,1.35-.28,1.29-.28,2.04c0,1.13.24,2.1.73,2.91s1.11,1.37,1.88,1.71,1.59.51,2.45.51c.46,0,.98-.07,1.57-.22s1.25-.46,2-.94l.34-.77-.17-.18c-.52.31-1.01.55-1.47.72s-.95.26-1.45.26c-1.06,0-1.96-.35-2.69-1.05s-1.1-1.8-1.12-3.28h3.45c.27,0,.81-.02,1.64-.05s1.48-.11,1.97-.22l.12-.12c.02-.21.03-.42.03-.65,0-.71-.13-1.38-.4-2.01s-.73-1.15-1.38-1.56Zm-.2,3.8c-.22.04-.82.05-1.82.05-.42,0-1.06-.01-1.92-.04s-1.36-.05-1.49-.08c0-1.2.24-2.1.72-2.71s1.14-.91,2-.91c.78,0,1.4.27,1.85.81s.68,1.37.68,2.48c0,.09,0,.23-.01.4Z"/>
    <path class="cls-1" d="m70.95,15.35c-.22-.02-.36-.05-.44-.08s-.15-.1-.21-.19-.09-.36-.09-.8v-3.21l.05-2.16c0-.62-.12-1.16-.37-1.62s-.64-.85-1.18-1.16-1.23-.46-2.06-.46c-1.21,0-2.45.47-3.72,1.42v1.33l.09.11.42.11.08-.05c.34-.8.53-1.24.58-1.32s.25-.17.59-.3.72-.18,1.14-.18c.8,0,1.43.22,1.9.65s.71,1.18.71,2.24c-2.94.42-4.74.92-5.4,1.51s-.99,1.42-.99,2.47c0,.53.11.98.33,1.36s.53.66.95.87.91.31,1.48.31c.47,0,.9-.08,1.29-.25l2.35-1.83-.04,1.73.16.15c.6-.04,1.12-.06,1.55-.06.45,0,.94.02,1.46.06l.09-.09v-.43l-.09-.1-.61-.05Zm-2.52-2.1c-.93,1.1-1.88,1.66-2.83,1.66-1.11,0-1.67-.56-1.67-1.68,0-.81.25-1.41.74-1.8s1.75-.75,3.76-1.09v2.91Z"/>
    <path class="cls-1" d="m77.69,7.47c.44,0,.85,0,1.22.01l.09-.1.2-.9-.08-.08c-.37.04-.97.06-1.82.06-.42,0-.8,0-1.16-.01.1-2.17.19-3.49.26-3.94l-.26-.22c-.47.29-1.08.57-1.82.83.04.31.06,1.4.06,3.27-.42.22-.96.45-1.64.7l-.08.11v.28l.1.09c.42-.03.79-.04,1.11-.04h.44v4.47c0,.13,0,.25-.01.38-.03.4-.04.89-.04,1.46,0,1.56.81,2.35,2.42,2.35.39,0,.77-.09,1.14-.26.65-.6,1.07-.95,1.24-1.08l-.26-.39c-.41.25-.85.38-1.33.38-.42,0-.73-.09-.94-.26s-.34-.42-.39-.73-.07-.97-.07-1.99l.06-4.38c.63,0,1.15-.01,1.55-.01Z"/>
    <path class="cls-1" d="m83.55,7.05c.46-.25.98-.37,1.57-.37s1.14.12,1.66.36.81.46.86.67.09.61.12,1.22l.1.1h.44l.1-.09c.07-1,.18-1.9.31-2.71-.71-.42-1.62-.63-2.73-.63-.58,0-1.04.06-1.37.17s-.82.35-1.47.7-1.11.64-1.38.84-.52.47-.75.82-.41.78-.56,1.31-.22,1.13-.22,1.8c0,1.49.43,2.7,1.29,3.64s2.08,1.41,3.66,1.41c1.14,0,2.17-.25,3.1-.76l.43-.72-.23-.28c-.48.23-.91.39-1.28.5s-.75.15-1.14.15c-.62,0-1.18-.13-1.68-.38s-.91-.58-1.21-1-.55-.93-.74-1.56-.28-1.27-.28-1.93c0-.78.12-1.45.35-2.02s.58-.97,1.04-1.22Z"/>
    <path class="cls-1" d="m101.66,15.39c-.75,0-1.2-.06-1.33-.19s-.21-.53-.23-1.22c-.04-1.66-.05-2.56-.05-2.68v-1.89c0-.61-.05-1.12-.15-1.54s-.28-.78-.54-1.08-.65-.57-1.16-.79-1.04-.33-1.59-.33c-.32,0-.64.04-.94.11s-.53.14-.66.2-.28.17-.43.3c-.52.49-1.08.98-1.68,1.47v-2.66c0-2.48.04-4.14.12-4.96l-.2-.13c-.94.37-2.09.64-3.47.8l-.09.1v.45l.1.1c.76,0,1.19.01,1.3.04s.18.07.23.13.08.24.1.55.05.86.07,1.66l.04,2.28v5.57c0,.4-.02,1-.05,1.78s-.06,1.25-.09,1.39-.07.24-.14.31-.15.11-.24.13-.48.05-1.18.1l-.1.09v.45l.1.1c.9-.06,1.76-.09,2.58-.09s1.7.03,2.59.09l.09-.1v-.45l-.1-.09c-.68-.04-1.07-.07-1.16-.09s-.17-.06-.24-.12-.11-.17-.15-.31-.06-.64-.09-1.5-.04-1.36-.04-1.52v-1.92c0-.6.03-1.01.1-1.22s.27-.48.61-.79.67-.54,1-.67.73-.2,1.22-.2.88.08,1.21.25.6.41.8.71.32.64.36,1.02.06.98.06,1.83v1.41c0,1.5-.05,2.72-.14,3.65l.13.12c.88-.06,1.41-.09,1.57-.09.32,0,.94.03,1.85.09l.09-.09v-.46l-.09-.09Z"/>
    <path class="cls-1" d="m59.55,9.15v-1.35c0-.7.01-1.19.04-1.45l-.18-1.12c-.23-.62-.59-1.11-1.07-1.47s-1.05-.53-1.69-.53c-.34,0-.67.05-.98.15-.31.1-.51.19-.59.26-.08.08-.25.25-.51.51l-1.44,1.47s-.03-.04-.05-.05c-.48-.36-1.05-.53-1.69-.53-.34,0-.67.05-.98.15s-.51.19-.59.26c-.08.08-.25.25-.51.51l-.92.94c.01-.66.04-1.23.08-1.7l-.18-.14c-.85.37-1.88.64-3.12.81l-.08.09v.46l.09.09h.81c.25.01.42.04.5.09s.13.14.15.25c.02.11.04.42.06.91.03.5.04.89.04,1.17v2.12c0,.4-.01,1-.04,1.78s-.05,1.25-.08,1.39c-.02.14-.03,2.62-.09,2.69-.06.07-.13.11-.21.13s-.43.05-1.06.1l-.09.09v.45l.09.1c.81-.06,1.58-.09,2.32-.09s1.53.03,2.33.09l.08-.1v-.45l-.09-.09c-.61-.04-.96-.07-1.04-.09-.08-.02-.15-.06-.21-.12-.06-.06-.14-2.54-.17-2.68s-.06-.65-.08-1.52-.04-1.46-.04-1.78v-1.59c0-.72.02-1.18.07-1.4.05-.22.17-.45.38-.69s.46-.46.78-.62c.32-.17.67-.25,1.06-.25.5,0,.91.15,1.24.45s.54.67.64,1.11.15,1.06.15,1.87v1.23c0,.4-.01,1-.04,1.78s-.05,1.25-.08,1.39c-.02.14-.06.24-.13.31s-.13.11-.21.13c-.08.02-.43.05-1.06.1l-.09.09v.45l.09.1c.86-.06,1.63-.09,2.32-.09.75,0,.96-.92.93-1.07s-.06-.65-.08-1.52c-.03-.87-.04-1.46-.04-1.78v-1.35c0-.7.01-1.19.04-1.45l-.18-1.12c-.12-.33-.29-.62-.48-.87,0,0,.02,0,.02-.01.05-.22.17-.45.38-.69s.46-.46.78-.62.67-.25,1.06-.25c.5,0,.91.15,1.24.45s.54.67.64,1.11.15,1.06.15,1.87v1.23c0,.4-.01,1-.04,1.78s-.05,1.25-.08,1.39c-.02.14-.06.24-.13.31s-.13.11-.21.13c-.08.02-.43.05-1.06.1l-.09.09v.45l.09.1c.86-.06,1.63-.09,2.32-.09.75,0,.96-.92.93-1.07s-.06-.65-.08-1.52c-.03-.87-.04-1.46-.04-1.78Z"/>
  </g>
</svg>