<svg xmlns="http://www.w3.org/2000/svg" xmlns:xlink="http://www.w3.org/1999/xlink" width="44.551" height="44.553" viewBox="0 0 44.551 44.553">
  <defs>
    <clipPath id="clip-path">
      <rect id="Rectangle_30" data-name="Rectangle 30" width="44.551" height="44.553" transform="translate(-2 -2)" fill="none"/>
    </clipPath>
  </defs>
  <g id="Group_75" data-name="Group 75" transform="translate(1.949 2.057)">
    <g id="Group_71" data-name="Group 71" transform="translate(0.051 -0.057)" clip-path="url(#clip-path)">
      <path id="Path_23" data-name="Path 23" d="M41.742,21.873a19.9,19.9,0,0,1-.471,4.323,6.312,6.312,0,0,0-3.091-3.269,3.6,3.6,0,1,0-5.218-.1,6.282,6.282,0,0,0-3.767,5.441c-.079-.063-.16-.127-.241-.19-.016-.014-.034-.026-.051-.038l-.265-.194q-.349-.249-.716-.473c-.069-.042-.137-.083-.208-.123a.286.286,0,0,0-.049-.026c-.038-.024-.079-.047-.117-.069-.073-.04-.146-.081-.218-.119-.055-.03-.111-.061-.168-.089-.1-.053-.206-.105-.311-.156a7,7,0,1,0-10.142-.19c-.127.055-.253.113-.376.172q-.343.164-.673.346c-.059.032-.115.065-.174.1q-.143.082-.285.17c-.1.063-.2.127-.305.194-.131.085-.261.174-.388.265a6.281,6.281,0,0,0-3.518-4.919,3.6,3.6,0,1,0-5.22-.1,6.3,6.3,0,0,0-3.3,3.36,19.873,19.873,0,1,1,39.271-4.315Z" transform="translate(-1.596 -1.596)" fill="none" stroke="#fff" stroke-miterlimit="10" stroke-width="2"/>
      <path id="Path_24" data-name="Path 24" d="M62.916,88.586a19.878,19.878,0,0,1-24.386-.457c.006-.135.012-.271.022-.4s.02-.269.034-.4c.008-.083.018-.166.028-.249s.022-.174.034-.261c.024-.174.055-.344.087-.514.016-.085.032-.17.051-.255s.036-.168.057-.253l.061-.251c.042-.166.089-.332.14-.5.024-.081.051-.162.077-.243s.049-.152.077-.226.059-.172.091-.257.059-.154.089-.23.067-.17.1-.253c.022-.055.044-.107.069-.16.042-.1.087-.2.133-.293l.109-.224q.055-.112.115-.224c.022-.044.047-.089.071-.133.034-.067.071-.131.109-.2.02-.036.04-.073.063-.109.04-.073.083-.144.127-.216.14-.233.287-.459.445-.681.044-.065.089-.127.135-.19s.081-.111.123-.166.091-.119.137-.178c.057-.075.117-.148.176-.22.024-.03.051-.063.077-.093s.051-.061.077-.091l0,0q.039-.049.085-.1c.053-.061.107-.121.162-.182.133-.148.273-.293.414-.433.067-.069.135-.135.206-.2l.028-.026c.1-.091.19-.178.289-.265.02-.018.04-.036.063-.055.049-.044.1-.087.15-.127,0,0,0,0,0,0,.067-.059.135-.115.2-.17l.192-.154c.034-.024.069-.051.1-.077.1-.075.2-.15.3-.222.127-.091.257-.18.388-.265.1-.067.2-.131.305-.194s.19-.115.285-.17c.059-.034.115-.067.174-.1q.331-.182.673-.346c.123-.059.249-.117.376-.172a7,7,0,1,1,10.142.19c.105.051.208.1.311.156.057.028.113.059.168.089.073.038.146.079.218.119.038.022.079.044.117.069a.287.287,0,0,1,.049.026c.071.04.14.081.208.123q.367.224.716.473l.265.194c.016.012.034.024.051.038.081.063.162.127.241.19,0,.028,0,.055,0,.083.228.186.463.362.708.524a0,0,0,0,0,0,0q.082.073.158.152c.166.158.326.321.481.491.04.042.081.087.119.131A11.871,11.871,0,0,1,61,82.019c.055.083.107.168.158.253s.111.184.166.279.1.174.144.263c.1.18.192.364.279.55.044.093.087.186.129.281.085.188.164.38.237.574.014.034.026.067.038.1.022.055.042.109.061.166s.049.135.071.2a11.818,11.818,0,0,1,.332,1.173c.012.053.024.105.034.16.026.113.049.23.069.348.014.071.026.144.038.216.008.042.014.085.02.129q.021.124.036.249c.014.107.026.212.038.319.01.089.018.176.024.265,0,.044.008.091.012.137.006.081.01.164.014.245s.01.188.012.281C62.914,88.337,62.916,88.461,62.916,88.586Z" transform="translate(-30.74 -52.392)" fill="none" stroke="#fff" stroke-miterlimit="10" stroke-width="2"/>
      <path id="Path_26" data-name="Path 26" d="M148.577,84.564v0a19.761,19.761,0,0,1-1.059,3.334v0a19.934,19.934,0,0,1-6.44,8.255c0-.125,0-.249-.006-.374,0-.093-.006-.188-.012-.281s-.008-.164-.014-.245c0-.046-.008-.093-.012-.137-.006-.089-.014-.176-.024-.265-.012-.107-.024-.212-.038-.319q-.015-.124-.036-.249c-.006-.044-.012-.087-.02-.129-.012-.073-.024-.146-.038-.216-.02-.117-.042-.235-.069-.348-.01-.055-.022-.107-.034-.16a11.816,11.816,0,0,0-.332-1.173c-.022-.069-.044-.135-.071-.2s-.038-.111-.061-.166c-.012-.034-.024-.067-.038-.1-.073-.194-.152-.386-.237-.574-.042-.1-.085-.188-.129-.281-.087-.186-.18-.37-.279-.55-.047-.089-.1-.176-.144-.263s-.109-.188-.166-.279-.1-.17-.158-.253a11.871,11.871,0,0,0-1.195-1.571c-.038-.044-.079-.089-.119-.131-.156-.17-.315-.334-.481-.491q-.076-.079-.158-.152a0,0,0,0,1,0,0c-.17-.16-.344-.313-.524-.461-.059-.053-.119-.1-.18-.146a6.282,6.282,0,0,1,3.767-5.441,3.6,3.6,0,1,1,5.218.1A6.312,6.312,0,0,1,148.577,84.564Z" transform="translate(-108.901 -59.964)" fill="none" stroke="#fff" stroke-miterlimit="10" stroke-width="2"/>
      <path id="Path_28" data-name="Path 28" d="M16.366,86.214c-.1.073-.2.148-.3.222-.034.026-.069.053-.1.077l-.192.154c-.069.055-.137.111-.2.17,0,0,0,0,0,0-.051.04-.1.083-.15.127-.022.018-.042.036-.063.055-.1.087-.194.174-.289.265l-.028.026c-.069.065-.14.133-.206.2-.142.14-.281.285-.414.433-.057.061-.109.121-.162.182q-.045.049-.085.1l0,0c-.026.03-.051.059-.077.091s-.053.063-.077.093c-.059.073-.119.146-.176.22-.049.059-.093.117-.137.178s-.083.109-.123.166-.091.125-.135.19c-.158.222-.305.449-.445.681-.044.073-.087.144-.127.216-.022.036-.042.073-.063.109-.038.067-.075.131-.109.2-.024.044-.049.089-.071.133q-.061.112-.115.224l-.109.224c-.047.1-.091.2-.133.293-.024.053-.047.105-.069.16-.036.083-.071.168-.1.253s-.061.154-.089.23-.063.172-.091.257-.055.152-.077.226-.053.162-.077.243c-.051.164-.1.33-.14.5l-.061.251c-.02.085-.038.168-.057.253s-.034.17-.051.255c-.032.17-.063.34-.087.514-.012.087-.024.174-.034.261s-.02.166-.028.249c-.014.133-.026.267-.034.4s-.016.269-.022.4a19.949,19.949,0,0,1-5.94-8,19.6,19.6,0,0,1-.975-3.142,6.3,6.3,0,0,1,3.3-3.36,3.6,3.6,0,1,1,5.22.1A6.281,6.281,0,0,1,16.366,86.214Z" transform="translate(-3.455 -59.964)" fill="none" stroke="#fff" stroke-miterlimit="10" stroke-width="2"/>
    </g>
  </g>
</svg>
